<svg width="45" height="34" viewBox="0 0 45 34" fill="none" xmlns="http://www.w3.org/2000/svg">
<g clip-path="url(#clip0_12_132)">
<path d="M44.686 32.9242C44.686 33.4197 44.3314 33.7522 43.9117 33.7522V33.7492C43.4801 33.7522 43.1321 33.4197 43.1321 32.9244C43.1321 32.4292 43.4801 32.0976 43.9117 32.0976C44.3316 32.0974 44.686 32.4291 44.686 32.9242ZM45.0001 32.9242C45.0001 32.2443 44.4853 31.8497 43.9117 31.8497C43.3342 31.8497 42.8195 32.2443 42.8195 32.9242C42.8195 33.6037 43.3343 34 43.9117 34C44.4855 34 45.0001 33.6037 45.0001 32.9242ZM43.7312 33.0152H43.8477L44.1178 33.5017H44.4143L44.1152 32.9947C44.2697 32.9834 44.3969 32.9078 44.3969 32.6943C44.3969 32.4291 44.2186 32.3438 43.9167 32.3438H43.48V33.5017H43.7311V33.0152H43.7312ZM43.7312 32.8191V32.5403H43.9059C44.0009 32.5403 44.1303 32.5482 44.1303 32.6671C44.1303 32.7965 44.0633 32.8191 43.9513 32.8191H43.7312Z" fill="white"/>
<path d="M37.6709 27.0012L39.0278 30.8104H36.272L37.6709 27.0012ZM36.2177 25.518L33.0906 33.648H35.2987L35.7934 32.2115H39.494L39.9621 33.648H42.3592L39.2089 25.517L36.2177 25.518ZM29.9396 33.651H32.1799V25.5155L29.9392 25.515L29.9396 33.651ZM14.3873 25.515L12.5182 31.963L10.7277 25.5155L8.31052 25.515L10.8677 33.651H14.0951L16.6729 25.515H14.3873ZM23.4427 27.2866H24.4056C25.8025 27.2866 26.7059 27.9301 26.7059 29.6001C26.7059 31.2705 25.8025 31.9142 24.4056 31.9142H23.4427V27.2866ZM21.2213 25.515V33.651H24.8532C26.7882 33.651 27.4201 33.321 28.1033 32.5805C28.5859 32.0607 28.898 30.9197 28.898 29.6725C28.898 28.5286 28.6339 27.5089 28.1733 26.8735C27.3435 25.7372 26.1482 25.515 24.3642 25.515H21.2213ZM0 25.5037V33.651H2.25922V27.4647L4.00974 27.4653C4.58937 27.4653 5.00255 27.6135 5.28167 27.9195C5.63569 28.3064 5.78025 28.931 5.78025 30.0735V33.651H7.96943V29.1496C7.96943 25.9369 5.97384 25.5037 4.02127 25.5037H0ZM17.6158 25.515L17.6167 33.651H19.8559V25.515H17.6158Z" fill="white"/>
<path d="M6.02064 9.31533C6.02064 9.31533 8.90199 4.95301 14.6551 4.50171V2.91907C8.2828 3.44421 2.76465 8.98227 2.76465 8.98227C2.76465 8.98227 5.89004 18.2533 14.6551 19.1022V17.42C8.22288 16.5896 6.02064 9.31533 6.02064 9.31533ZM14.6551 14.0744V15.615C9.79377 14.7257 8.44438 9.54026 8.44438 9.54026C8.44438 9.54026 10.7785 6.88698 14.6551 6.4567V8.1472C14.6521 8.1472 14.6501 8.14628 14.6477 8.14628C12.613 7.89574 11.0236 9.84612 11.0236 9.84612C11.0236 9.84612 11.9145 13.1295 14.6551 14.0744ZM14.6551 0V2.91907C14.8422 2.90436 15.0292 2.89188 15.2173 2.88531C22.4619 2.63476 27.1823 8.98227 27.1823 8.98227C27.1823 8.98227 21.7608 15.7469 16.1125 15.7469C15.5949 15.7469 15.1103 15.6977 14.6551 15.6149V17.42C15.0443 17.4707 15.4479 17.5005 15.869 17.5005C21.1251 17.5005 24.9261 14.7461 28.6067 11.486C29.2169 11.9875 31.7152 13.2076 32.2287 13.7416C28.7292 16.7481 20.5734 19.1716 15.9495 19.1716C15.5039 19.1716 15.0758 19.1438 14.6551 19.1022V21.6387H34.633V0H14.6551ZM14.6551 6.4567V4.50184C14.8402 4.48858 15.0268 4.47833 15.2173 4.47215C20.4269 4.30424 23.8447 9.06597 23.8447 9.06597C23.8447 9.06597 20.1531 14.3269 16.195 14.3269C15.6254 14.3269 15.1146 14.233 14.655 14.0744V8.1472C16.6831 8.39867 17.0913 9.31796 18.3106 11.4037L21.0224 9.05729C21.0224 9.05729 19.0428 6.39324 15.7058 6.39324C15.343 6.39311 14.9959 6.41925 14.6551 6.4567Z" fill="#77B900"/>
</g>
<defs>
<clipPath id="clip0_12_132">
<rect width="45" height="34" fill="white"/>
</clipPath>
</defs>
</svg>
